<?xml version="1.0" encoding="UTF-8"?>
<svg id="Capa_2" data-name="Capa 2" xmlns="http://www.w3.org/2000/svg" viewBox="0 0 226.84 436.72">
  <defs>
    <style>
      .cls-1 {
        fill: #000;
        stroke-width: 0px;
      }
    </style>
  </defs>
  <g id="Capa_1-2" data-name="Capa 1">
    <g>
      <path class="cls-1" d="M78.82,436.72c-2.29,0-4.57-.59-6.61-1.77l-63.92-36.9c-5.12-2.95-8.29-8.46-8.29-14.36v-73.81c0-4.71,2.53-9.1,6.61-11.45l3.47,6.01c-1.94,1.12-3.14,3.21-3.14,5.44v73.81c0,3.44,1.85,6.64,4.82,8.35l63.92,36.9c1.94,1.12,4.35,1.12,6.29,0l65.6-37.87c1.94-1.12,3.14-3.2,3.14-5.44v-75.75c0-2.24-1.2-4.32-3.14-5.44l3.47-6.01c4.08,2.35,6.61,6.74,6.61,11.45v75.75c0,4.71-2.53,9.1-6.61,11.45l-65.6,37.87c-2.04,1.18-4.33,1.77-6.61,1.77Z"/>
      <path class="cls-1" d="M78.82,350.86c-1,0-2.01-.26-2.9-.78L4.35,308.77c-2.68-1.55-4.35-4.44-4.35-7.53v-82.64c0-2.07,1.11-4,2.9-5.03l73.01-42.15c1.79-1.03,4.02-1.03,5.81,0l73.01,42.16c1.79,1.03,2.9,2.96,2.9,5.03v84.31c0,2.07-1.11,4-2.9,5.03l-73.01,42.15c-.9.52-1.9.78-2.9.78ZM6.94,219.24v81.99c0,.63.34,1.21.88,1.53l71,40.99,71.88-41.5v-83l-71.88-41.5L6.94,219.24Z"/>
      <path class="cls-1" d="M78.82,179.49c-1.42,0-2.84-.37-4.1-1.1L5.55,138.46c-3.42-1.98-5.55-5.66-5.55-9.61V48.97c0-2.92,1.57-5.65,4.1-7.11L74.72,1.1c2.53-1.46,5.68-1.46,8.21,0l70.61,40.77c2.53,1.46,4.1,4.19,4.1,7.11v81.54c0,2.92-1.57,5.65-4.1,7.11l-70.61,40.77c-1.27.73-2.69,1.1-4.1,1.1ZM78.82,6.94c-.22,0-.44.06-.64.17L7.57,47.87c-.39.23-.63.65-.63,1.1v79.87c0,1.48.8,2.86,2.08,3.6l69.17,39.93c.39.23.88.23,1.27,0l70.61-40.77c.39-.23.63-.65.63-1.1V48.97c0-.45-.24-.87-.63-1.1L79.46,7.11c-.2-.11-.42-.17-.63-.17Z"/>
      <path class="cls-1" d="M151.1,393.51c-2.12,0-4.23-.57-6.12-1.7l-62.48-37.61c-4.41-2.65-7.15-7.5-7.15-12.64v-75.89c0-4.14,2.2-8.03,5.75-10.16l63.88-38.45c3.77-2.27,8.46-2.27,12.24,0l63.88,38.45c3.54,2.13,5.75,6.03,5.75,10.16v77.52c0,4.14-2.2,8.03-5.75,10.16l-63.88,38.45c-1.89,1.14-4,1.7-6.12,1.7ZM151.1,222.29c-.88,0-1.76.24-2.54.71l-63.88,38.45c-1.47.89-2.39,2.5-2.39,4.22v75.89c0,2.73,1.45,5.29,3.79,6.7l62.48,37.61c1.57.94,3.51.94,5.08,0l63.88-38.45c1.47-.89,2.39-2.5,2.39-4.22v-77.52c0-1.72-.91-3.33-2.39-4.22l-63.88-38.45c-.78-.47-1.66-.71-2.54-.71Z"/>
      <rect class="cls-1" x="75.35" y="347.76" width="6.94" height="87.01"/>
      <rect class="cls-1" x="75.35" y="86.73" width="6.94" height="87.01"/>
      <rect class="cls-1" x="72.62" y="63.34" width="87.01" height="6.94" transform="translate(-17.84 67.01) rotate(-30)"/>
      <rect class="cls-1" x="71.81" y="236.29" width="87.01" height="6.94" transform="translate(-104.43 89.78) rotate(-30)"/>
      <rect class="cls-1" x="148.84" y="281.37" width="79.65" height="6.94" transform="translate(-117.15 132.5) rotate(-30)"/>
      <rect class="cls-1" x="119.46" y="323.12" width="140.36" height="6.94" transform="translate(-187.87 337.25) rotate(-61.48)"/>
      <rect class="cls-1" x="185.27" y="286.55" width="6.94" height="78.92" transform="translate(-187.31 303.87) rotate(-56.56)"/>
      <rect class="cls-1" x="37.55" y="22.98" width="6.94" height="87.01" transform="translate(-37.07 68.76) rotate(-60)"/>
      <rect class="cls-1" x="37.55" y="195.49" width="6.94" height="87.01" transform="translate(-186.47 155.02) rotate(-60)"/>
      <rect class="cls-1" x="75.35" y="256.45" width="6.94" height="87.01"/>
      <polygon class="cls-1" points="79.68 259.73 79.68 434.05 155.04 390.29 155.04 217.98 79.68 259.73"/>
      <polygon class="cls-1" points="79.68 88.73 79.68 172.78 155.04 132.78 155.04 46.98 79.68 88.73"/>
    </g>
  </g>
</svg>